<?xml version="1.0" encoding="utf-8"?>
<!-- Generator: Adobe Illustrator 21.1.0, SVG Export Plug-In . SVG Version: 6.00 Build 0)  -->
<svg version="1.1" id="Layer_1" xmlns="http://www.w3.org/2000/svg" xmlns:xlink="http://www.w3.org/1999/xlink" x="0px" y="0px"
	 viewBox="0 0 30 21.3" style="enable-background:new 0 0 30 21.3;" xml:space="preserve">
<path d="M4.4,10.6c0-0.2,0.1-0.4,0.2-0.6C4.8,9.8,5,9.8,5.2,9.8h2c0.2,0,0.4,0.1,0.6,0.2c0.2,0.2,0.2,0.4,0.2,0.6S8,11.1,7.8,11.2
	c-0.2,0.2-0.3,0.2-0.6,0.2h-2c-0.2,0-0.4-0.1-0.6-0.2C4.5,11.1,4.4,10.9,4.4,10.6z M7.2,17.5c0-0.2,0.1-0.4,0.2-0.6l1.5-1.4
	c0.1-0.2,0.4-0.2,0.6-0.2s0.4,0.1,0.6,0.2s0.2,0.3,0.2,0.6c0,0.2-0.1,0.5-0.2,0.6l-1.4,1.4c-0.4,0.3-0.8,0.3-1.2,0
	C7.3,18,7.2,17.8,7.2,17.5z M7.2,3.7c0-0.2,0.1-0.4,0.2-0.6c0.2-0.2,0.4-0.2,0.6-0.2c0.2,0,0.4,0.1,0.6,0.2l1.4,1.5
	c0.2,0.1,0.2,0.4,0.2,0.6s-0.1,0.4-0.2,0.6S9.8,6,9.5,6C9.3,6,9.1,5.9,8.9,5.8L7.5,4.3C7.3,4.2,7.2,3.9,7.2,3.7z M9.8,10.6
	c0-0.9,0.2-1.8,0.7-2.6s1.1-1.4,1.9-1.9s1.7-0.7,2.6-0.7c0.7,0,1.4,0.1,2,0.4c0.6,0.3,1.2,0.6,1.7,1.1c0.5,0.5,0.8,1,1.1,1.7
	c0.3,0.6,0.4,1.3,0.4,2c0,0.9-0.2,1.8-0.7,2.6c-0.5,0.8-1.1,1.4-1.9,1.9s-1.7,0.7-2.6,0.7s-1.8-0.2-2.6-0.7
	c-0.8-0.5-1.4-1.1-1.9-1.9C10,12.4,9.8,11.6,9.8,10.6z M11.5,10.6c0,1,0.3,1.8,1,2.5c0.7,0.7,1.5,1,2.5,1s1.8-0.4,2.5-1s1-1.5,1-2.5
	c0-1-0.4-1.8-1-2.5c-0.7-0.7-1.5-1-2.5-1c-1,0-1.8,0.3-2.5,1C11.8,8.8,11.5,9.7,11.5,10.6z M14.1,18.4c0-0.2,0.1-0.4,0.2-0.6
	s0.4-0.2,0.6-0.2c0.2,0,0.4,0.1,0.6,0.2s0.2,0.4,0.2,0.6v2c0,0.2-0.1,0.5-0.2,0.6s-0.4,0.2-0.6,0.2s-0.4-0.1-0.6-0.2
	c-0.2-0.2-0.2-0.4-0.2-0.6C14.1,20.4,14.1,18.4,14.1,18.4z M14.1,2.9v-2c0-0.2,0.1-0.4,0.2-0.6S14.8,0,15,0s0.4,0.1,0.6,0.2
	s0.2,0.4,0.2,0.6v2.1c0,0.2-0.1,0.4-0.2,0.6S15.2,3.7,15,3.7s-0.4-0.1-0.6-0.2S14.1,3.1,14.1,2.9z M19.7,16.1c0-0.2,0.1-0.4,0.2-0.6
	c0.1-0.2,0.3-0.2,0.6-0.2c0.2,0,0.4,0.1,0.6,0.2l1.5,1.4c0.2,0.2,0.2,0.4,0.2,0.6c0,0.2-0.1,0.4-0.2,0.6c-0.4,0.3-0.8,0.3-1.2,0
	l-1.4-1.4C19.7,16.5,19.7,16.3,19.7,16.1z M19.7,5.2c0-0.2,0.1-0.4,0.2-0.6l1.4-1.5c0.2-0.2,0.4-0.2,0.6-0.2c0.2,0,0.4,0.1,0.6,0.2
	c0.2,0.2,0.2,0.4,0.2,0.6c0,0.2-0.1,0.5-0.2,0.6L21,5.8C20.9,5.9,20.7,6,20.4,6c-0.2,0-0.4-0.1-0.6-0.2S19.7,5.4,19.7,5.2z
	 M21.9,10.6c0-0.2,0.1-0.4,0.2-0.6c0.2-0.2,0.4-0.2,0.6-0.2h2c0.2,0,0.4,0.1,0.6,0.3s0.3,0.4,0.3,0.6s-0.1,0.4-0.3,0.6
	s-0.4,0.2-0.6,0.2h-2c-0.2,0-0.4-0.1-0.6-0.2S21.9,10.9,21.9,10.6z"/>
</svg>
