<?xml version="1.0" encoding="utf-8"?>
<!-- Generator: Adobe Illustrator 21.1.0, SVG Export Plug-In . SVG Version: 6.00 Build 0)  -->
<svg version="1.1" id="Layer_1" xmlns="http://www.w3.org/2000/svg" xmlns:xlink="http://www.w3.org/1999/xlink" x="0px" y="0px"
	 viewBox="0 0 30 20.5" style="enable-background:new 0 0 30 20.5;" xml:space="preserve">
<path d="M4.7,9.5c0,1.3,0.5,2.5,1.4,3.4c0.9,1,2.1,1.5,3.4,1.5c0.1,0,0.2-0.1,0.2-0.2v-1.3c0-0.1-0.1-0.2-0.2-0.2
	c-0.8,0-1.6-0.4-2.2-1s-0.9-1.4-0.9-2.2c0-0.8,0.3-1.6,0.8-2.2c0.6-0.6,1.3-1,2.1-1l0.5-0.1C9.9,6.2,10,6.1,10,6l0.1-0.5
	c0.1-1.1,0.6-2,1.4-2.8s1.8-1.1,2.9-1.1c1.1,0,2,0.4,2.8,1.1c0.8,0.7,1.3,1.6,1.4,2.7l0.1,0.6c0,0.1,0.1,0.2,0.2,0.2h1.6
	c0.9,0,1.7,0.3,2.3,1c0.6,0.6,1,1.4,1,2.3c0,0.8-0.3,1.6-0.9,2.2c-0.6,0.6-1.3,1-2.2,1c-0.1,0-0.2,0.1-0.2,0.2v1.3
	c0,0.1,0.1,0.2,0.2,0.2c1.3,0,2.5-0.5,3.4-1.5s1.4-2.1,1.4-3.4c0-0.9-0.2-1.7-0.7-2.5c-0.4-0.8-1-1.4-1.8-1.8
	c-0.8-0.4-1.6-0.7-2.5-0.7h-0.3c-0.3-1.3-1-2.4-2.1-3.3C16.9,0.4,15.7,0,14.3,0c-1.4,0-2.7,0.4-3.8,1.3s-1.8,2-2.1,3.4
	C7.3,5,6.4,5.5,5.7,6.4S4.7,8.4,4.7,9.5z M10.1,16.5c0,0.2,0.1,0.3,0.2,0.5c0.1,0.2,0.3,0.3,0.5,0.4c0.2,0.1,0.4,0.1,0.6,0
	c0.2-0.1,0.3-0.3,0.4-0.6l0.1-0.6c0.1-0.2,0-0.4-0.1-0.6s-0.3-0.3-0.5-0.4c-0.2-0.1-0.4,0-0.6,0.1s-0.3,0.3-0.4,0.5l-0.1,0.6
	C10.1,16.4,10.1,16.5,10.1,16.5z M10.8,13.6c0,0.2,0.1,0.4,0.2,0.6c0.2,0.2,0.3,0.2,0.6,0.2c0.2,0,0.4-0.1,0.6-0.2
	c0.2-0.2,0.2-0.4,0.2-0.6c0-0.2-0.1-0.4-0.2-0.6s-0.4-0.2-0.6-0.2c-0.2,0-0.4,0.1-0.6,0.2C10.9,13.2,10.8,13.4,10.8,13.6z
	 M11.4,11.4c0,0.2,0,0.3,0.1,0.5c0.1,0.1,0.3,0.2,0.5,0.3c0.2,0.1,0.4,0,0.6-0.1s0.3-0.3,0.4-0.5l0.3-0.9c0.1-0.2,0.1-0.5-0.1-0.6
	S13,9.7,12.7,9.6c-0.2-0.1-0.4,0-0.6,0.1c-0.2,0.1-0.3,0.3-0.4,0.5l-0.2,0.9c0,0,0,0.1,0,0.1C11.4,11.3,11.4,11.3,11.4,11.4z
	 M12.6,19.7c0,0.2,0.1,0.3,0.1,0.5c0.1,0.2,0.3,0.3,0.5,0.3c0.1,0,0.2,0,0.2,0c0.4,0,0.7-0.2,0.8-0.6l0.1-0.6c0.1-0.3,0-0.5-0.1-0.7
	c-0.1-0.2-0.3-0.3-0.5-0.4c-0.2-0.1-0.4,0-0.6,0.1s-0.3,0.3-0.4,0.5l-0.1,0.6C12.6,19.5,12.6,19.6,12.6,19.7z M13.4,16.8
	c0,0.2,0.1,0.4,0.2,0.6c0.2,0.2,0.4,0.2,0.6,0.2c0.2,0,0.4-0.1,0.6-0.2c0.2-0.2,0.2-0.4,0.2-0.6c0-0.2-0.1-0.4-0.2-0.6
	C14.6,16,14.4,16,14.2,16s-0.4,0.1-0.6,0.2C13.4,16.3,13.4,16.5,13.4,16.8z M14,14.5c0,0.1,0,0.3,0.1,0.5s0.2,0.3,0.4,0.3
	c0.2,0.1,0.4,0,0.6-0.1s0.3-0.3,0.4-0.6l0.3-0.9c0.1-0.2,0.1-0.4-0.1-0.6c-0.1-0.2-0.3-0.3-0.5-0.4c-0.2-0.1-0.4,0-0.6,0.1
	s-0.3,0.3-0.4,0.5L14,14.2C14,14.3,14,14.4,14,14.5z M16.8,16.6c0,0.2,0,0.3,0.1,0.5s0.3,0.3,0.5,0.3c0,0,0.1,0,0.1,0
	c0.1,0,0.1,0,0.1,0c0.4,0,0.7-0.2,0.8-0.7l0.1-0.6c0.1-0.2,0-0.4-0.1-0.6c-0.1-0.2-0.3-0.3-0.5-0.4c-0.2-0.1-0.5,0-0.7,0.1
	s-0.3,0.3-0.4,0.5l-0.1,0.6c0,0,0,0.1,0,0.1C16.7,16.6,16.8,16.6,16.8,16.6z M17.5,13.7c0,0.2,0.1,0.4,0.2,0.6
	c0.1,0.2,0.3,0.2,0.6,0.2c0.2,0,0.4-0.1,0.6-0.2s0.2-0.4,0.2-0.6c0-0.2-0.1-0.4-0.2-0.6s-0.4-0.2-0.6-0.2s-0.4,0.1-0.6,0.2
	C17.6,13.3,17.5,13.4,17.5,13.7z M18.1,11.4c0,0.2,0,0.3,0.2,0.5s0.3,0.3,0.5,0.3c0,0,0.1,0,0.1,0s0.1,0,0.1,0c0.1,0,0.2,0,0.4-0.1
	c0.2-0.1,0.4-0.3,0.4-0.5l0.2-0.9c0.1-0.2,0-0.4-0.1-0.6c-0.1-0.2-0.3-0.3-0.5-0.4s-0.4,0-0.6,0.1c-0.2,0.1-0.3,0.3-0.4,0.5
	l-0.3,0.9C18.1,11.2,18.1,11.2,18.1,11.4C18.1,11.3,18.1,11.3,18.1,11.4z"/>
</svg>
