<?xml version="1.0" encoding="utf-8"?>
<!-- Generator: Adobe Illustrator 21.1.0, SVG Export Plug-In . SVG Version: 6.00 Build 0)  -->
<svg version="1.1" id="Layer_1" xmlns="http://www.w3.org/2000/svg" xmlns:xlink="http://www.w3.org/1999/xlink" x="0px" y="0px"
	 viewBox="0 0 30 21.2" style="enable-background:new 0 0 30 21.2;" xml:space="preserve">
<path d="M2.3,13.9c0,0.2,0.1,0.4,0.3,0.6c0.2,0.2,0.4,0.2,0.6,0.2h9.4c0.2,0,0.4-0.1,0.6-0.2s0.2-0.4,0.2-0.6c0-0.2-0.1-0.4-0.2-0.6
	c-0.2-0.2-0.4-0.2-0.6-0.2H3.2c-0.2,0-0.4,0.1-0.6,0.2C2.4,13.5,2.3,13.7,2.3,13.9z M2.7,20.1c0,0.2,0.1,0.4,0.2,0.6
	c0.2,0.2,0.4,0.2,0.6,0.2h9.4c0.2,0,0.4-0.1,0.6-0.2s0.2-0.4,0.2-0.6s-0.1-0.4-0.2-0.6s-0.4-0.2-0.6-0.2H3.5c-0.2,0-0.4,0.1-0.6,0.2
	C2.7,19.6,2.7,19.8,2.7,20.1z M4,17c0,0.2,0.1,0.4,0.2,0.6s0.4,0.2,0.6,0.2h9.4c0.2,0,0.4-0.1,0.6-0.2c0.2-0.2,0.2-0.4,0.2-0.6
	c0-0.2-0.1-0.5-0.2-0.6c-0.2-0.2-0.4-0.2-0.6-0.2H4.9c-0.2,0-0.5,0.1-0.6,0.2C4.1,16.5,4,16.7,4,17z M6.4,10.6
	c0-0.2,0.1-0.4,0.3-0.6c0.2-0.2,0.4-0.2,0.6-0.2h2c0.2,0,0.4,0.1,0.6,0.2s0.2,0.4,0.2,0.6s-0.1,0.4-0.2,0.6
	c-0.2,0.2-0.4,0.2-0.6,0.2h-2c-0.2,0-0.4-0.1-0.6-0.2C6.5,11,6.4,10.8,6.4,10.6z M9.3,3.7c0-0.2,0.1-0.4,0.2-0.6
	c0.2-0.2,0.4-0.2,0.6-0.2c0.2,0,0.4,0.1,0.6,0.2l1.4,1.5c0.2,0.2,0.2,0.3,0.2,0.6c0,0.2-0.1,0.4-0.2,0.6S11.8,6,11.6,6
	c-0.2,0-0.4-0.1-0.6-0.2L9.6,4.3C9.4,4.1,9.3,3.9,9.3,3.7z M11.9,10.5L11.9,10.5c0-1,0.3-1.8,0.7-2.6c0.5-0.8,1.1-1.4,1.9-1.8
	s1.7-0.7,2.6-0.7c0.7,0,1.4,0.1,2,0.4c0.6,0.3,1.2,0.7,1.7,1.1c0.5,0.5,0.8,1,1.1,1.7c0.3,0.6,0.4,1.3,0.4,2c0,0.9-0.2,1.8-0.7,2.6
	s-1.1,1.4-1.9,1.9c-0.8,0.5-1.7,0.7-2.6,0.7h-0.2c-0.1,0-0.1,0-0.2-0.1c0,0-0.1-0.1-0.1-0.2v-1.2c0-0.1,0.1-0.2,0.2-0.2h0.2
	c1,0,1.8-0.4,2.5-1.1c0.7-0.7,1-1.5,1-2.5c0-1-0.4-1.8-1-2.5c-0.7-0.7-1.5-1-2.5-1c-0.9,0-1.8,0.3-2.4,1c-0.7,0.6-1,1.4-1.1,2.4
	c0,0.1,0,0.1-0.1,0.2s-0.1,0.1-0.2,0.1h-1.1C11.9,10.7,11.9,10.7,11.9,10.5z M16.2,20.4v-2c0-0.2,0.1-0.4,0.2-0.6s0.4-0.2,0.6-0.2
	s0.5,0.1,0.6,0.2s0.2,0.4,0.2,0.6v2c0,0.2-0.1,0.5-0.2,0.6s-0.4,0.2-0.6,0.2c-0.2,0-0.4-0.1-0.6-0.2S16.2,20.6,16.2,20.4z M16.2,2.9
	V0.9c0-0.2,0.1-0.4,0.2-0.6S16.8,0,17.1,0c0.2,0,0.4,0.1,0.6,0.2s0.2,0.4,0.2,0.6v2c0,0.2-0.1,0.4-0.2,0.6c-0.2,0.2-0.4,0.2-0.6,0.2
	c-0.2,0-0.4-0.1-0.6-0.2C16.3,3.3,16.2,3.1,16.2,2.9z M21.7,16.1c0-0.2,0.1-0.4,0.2-0.6c0.1-0.2,0.3-0.2,0.6-0.2
	c0.2,0,0.4,0.1,0.6,0.2l1.5,1.4c0.2,0.2,0.2,0.4,0.2,0.6c0,0.2-0.1,0.4-0.2,0.6c-0.4,0.3-0.8,0.3-1.2,0L22,16.7
	C21.8,16.5,21.7,16.3,21.7,16.1z M21.7,5.2c0-0.2,0.1-0.4,0.2-0.6l1.4-1.5c0.2-0.2,0.4-0.2,0.6-0.2c0.2,0,0.4,0.1,0.6,0.3
	c0.2,0.2,0.2,0.4,0.2,0.6c0,0.2-0.1,0.5-0.2,0.6l-1.5,1.4C23,5.9,22.8,6,22.5,6c-0.2,0-0.4-0.1-0.6-0.2S21.7,5.4,21.7,5.2z M24,10.6
	c0-0.2,0.1-0.4,0.2-0.6c0.2-0.2,0.4-0.2,0.6-0.2h2c0.2,0,0.4,0.1,0.6,0.3c0.2,0.2,0.3,0.4,0.3,0.6c0,0.2-0.1,0.4-0.3,0.6
	c-0.2,0.2-0.4,0.2-0.6,0.2h-2c-0.2,0-0.4-0.1-0.6-0.2C24.1,11.1,24,10.9,24,10.6z"/>
</svg>
