<?xml version="1.0" encoding="utf-8"?>
<!-- Generator: Adobe Illustrator 21.1.0, SVG Export Plug-In . SVG Version: 6.00 Build 0)  -->
<svg version="1.1" id="Layer_1" xmlns="http://www.w3.org/2000/svg" xmlns:xlink="http://www.w3.org/1999/xlink" x="0px" y="0px"
	 viewBox="0 0 30 17.6" style="enable-background:new 0 0 30 17.6;" xml:space="preserve">
<path d="M3.1,13.7c0-0.2,0.1-0.5,0.2-0.6s0.4-0.2,0.6-0.2h9c0.2,0,0.4,0.1,0.6,0.2s0.2,0.4,0.2,0.6c0,0.2-0.1,0.4-0.2,0.6
	s-0.4,0.2-0.6,0.2H4c-0.2,0-0.5-0.1-0.6-0.2S3.1,13.9,3.1,13.7z M5.7,10.6c0-0.2,0.1-0.4,0.3-0.6c0.1-0.1,0.3-0.2,0.6-0.2h9
	c0.2,0,0.4,0.1,0.6,0.2s0.2,0.4,0.2,0.6s-0.1,0.4-0.2,0.6s-0.4,0.2-0.6,0.2h-9c-0.2,0-0.4-0.1-0.6-0.3S5.7,10.8,5.7,10.6z M6.3,8.3
	c0,0.1,0.1,0.1,0.2,0.1h1.4c0.1,0,0.2-0.1,0.2-0.1c0.2-0.5,0.6-1,1-1.4s1-0.6,1.6-0.6l0.5-0.1c0.1,0,0.2-0.1,0.2-0.2l0.1-0.5
	c0.1-1.1,0.6-2,1.4-2.7c0.8-0.7,1.8-1.1,2.9-1.1c1.1,0,2,0.4,2.8,1.1c0.8,0.7,1.3,1.6,1.4,2.7l0.1,0.6c0,0.1,0.1,0.2,0.2,0.2h1.6
	c0.9,0,1.7,0.3,2.3,1s1,1.4,1,2.3c0,0.9-0.3,1.6-1,2.3c-0.6,0.6-1.4,1-2.3,1H15c-0.1,0-0.2,0.1-0.2,0.2v1.3c0,0.1,0.1,0.2,0.2,0.2
	h6.9c0.7,0,1.3-0.1,1.9-0.4s1.1-0.6,1.6-1s0.8-1,1-1.6s0.4-1.2,0.4-1.9c0-0.9-0.2-1.7-0.7-2.5s-1-1.4-1.8-1.8
	c-0.8-0.4-1.6-0.7-2.5-0.7h-0.3c-0.3-1.3-1-2.4-2.1-3.3C18.4,0.4,17.2,0,15.8,0c-1.4,0-2.7,0.4-3.8,1.3c-1.1,0.9-1.8,2-2.1,3.4
	C9.1,4.9,8.4,5.3,7.7,5.9S6.6,7.3,6.4,8.2L6.3,8.3C6.4,8.2,6.3,8.2,6.3,8.3z M7.5,16.7c0-0.2,0.1-0.4,0.3-0.6
	c0.2-0.2,0.4-0.2,0.6-0.2h9c0.2,0,0.5,0.1,0.6,0.2c0.2,0.2,0.2,0.4,0.2,0.6c0,0.2-0.1,0.4-0.2,0.6c-0.2,0.2-0.4,0.2-0.6,0.2h-9
	c-0.2,0-0.4-0.1-0.6-0.2C7.6,17.2,7.5,17,7.5,16.7z"/>
</svg>
