<?xml version="1.0" encoding="utf-8"?>
<!-- Generator: Adobe Illustrator 21.1.0, SVG Export Plug-In . SVG Version: 6.00 Build 0)  -->
<svg version="1.1" id="Layer_1" xmlns="http://www.w3.org/2000/svg" xmlns:xlink="http://www.w3.org/1999/xlink" x="0px" y="0px"
	 viewBox="0 0 30 20.3" style="enable-background:new 0 0 30 20.3;" xml:space="preserve">
<path d="M4.6,9.5c0-1.2,0.4-2.2,1.1-3.1C6.4,5.6,7.3,5,8.5,4.7c0.3-1.4,1-2.5,2.1-3.4S12.9,0,14.3,0c1.4,0,2.6,0.4,3.7,1.3
	c1.1,0.9,1.8,1.9,2.1,3.3h0.3c0.9,0,1.7,0.2,2.5,0.7c0.8,0.4,1.4,1,1.8,1.8c0.4,0.8,0.6,1.6,0.6,2.5c0,1.3-0.5,2.5-1.4,3.4
	c-0.9,1-2,1.5-3.4,1.5c-0.1,0-0.2-0.1-0.2-0.2V13c0-0.1,0.1-0.2,0.2-0.2c0.8-0.1,1.6-0.4,2.2-1s0.9-1.4,0.9-2.2c0-0.9-0.3-1.7-1-2.3
	c-0.6-0.6-1.4-1-2.3-1h-1.6c-0.1,0-0.2-0.1-0.2-0.2l-0.1-0.6c-0.1-0.7-0.3-1.4-0.7-1.9s-0.9-1-1.5-1.4c-0.6-0.3-1.3-0.5-2-0.5
	c-1.1,0-2.1,0.4-2.9,1.1c-0.8,0.7-1.3,1.6-1.4,2.7L10,6.1c0,0.1-0.1,0.1-0.2,0.1L9.3,6.3c-0.8,0.1-1.6,0.4-2.1,1
	C6.6,7.9,6.4,8.7,6.4,9.5c0,0.9,0.3,1.6,0.9,2.2s1.3,1,2.2,1c0.1,0,0.2,0.1,0.2,0.2v1.3c0,0.1-0.1,0.2-0.2,0.2
	c-0.7,0-1.3-0.2-1.9-0.5S6.4,13.4,6,13c-0.4-0.4-0.8-1-1-1.5S4.6,10.2,4.6,9.5z M10,16.3c0,0,0-0.1,0-0.1s0-0.1,0-0.1l0.3-1
	c0.1-0.2,0.2-0.4,0.4-0.5c0.2-0.1,0.4-0.1,0.6-0.1c0.2,0.1,0.4,0.2,0.5,0.4c0.1,0.2,0.1,0.4,0.1,0.6l-0.2,1
	c-0.1,0.4-0.4,0.7-0.8,0.7c0,0-0.1,0-0.1,0c0,0-0.1,0-0.1,0c0,0-0.1,0-0.1,0c-0.2-0.1-0.4-0.2-0.5-0.3S10,16.5,10,16.3z M11.3,11.5
	c0,0,0-0.1,0-0.1c0,0,0-0.1,0-0.1l0.3-1c0.1-0.2,0.2-0.3,0.3-0.5c0.1-0.1,0.3-0.1,0.5-0.1c0,0,0.1,0,0.1,0s0.1,0,0.1,0
	c0,0,0.1,0,0.1,0c0.2,0.1,0.4,0.2,0.5,0.4c0.1,0.2,0.1,0.4,0.1,0.6l-0.2,1c-0.1,0.3-0.2,0.5-0.4,0.6s-0.4,0.1-0.6,0
	c-0.2-0.1-0.4-0.2-0.5-0.3S11.3,11.6,11.3,11.5z M12.6,19.4c0,0,0-0.1,0-0.1s0-0.1,0-0.1l0.3-1c0.1-0.2,0.2-0.4,0.4-0.5
	s0.4-0.1,0.6-0.1s0.4,0.2,0.5,0.4s0.1,0.4,0.1,0.6l-0.2,1c-0.1,0.4-0.4,0.6-0.8,0.6c-0.1,0-0.1,0-0.2,0c-0.2,0-0.4-0.1-0.5-0.3
	C12.6,19.8,12.6,19.6,12.6,19.4z M13.9,14.7c0-0.1,0-0.1,0-0.2l0.3-1c0.1-0.2,0.2-0.4,0.4-0.5c0.2-0.1,0.4-0.1,0.6-0.1
	c0.2,0.1,0.4,0.2,0.5,0.4c0.1,0.2,0.1,0.4,0.1,0.6l-0.2,1c-0.1,0.5-0.4,0.7-0.7,0.7c0,0-0.1,0-0.3-0.1c-0.2,0-0.4-0.1-0.5-0.3
	C14,15,13.9,14.8,13.9,14.7z M16.7,16.3c0-0.1,0-0.1,0-0.2l0.3-1c0.1-0.2,0.2-0.4,0.4-0.5s0.4-0.1,0.6-0.1c0.2,0.1,0.4,0.2,0.5,0.4
	c0.1,0.2,0.1,0.4,0.1,0.6l-0.3,1.1c-0.1,0.4-0.4,0.6-0.8,0.6c-0.1,0-0.2,0-0.3,0c-0.2,0-0.4-0.1-0.5-0.3
	C16.8,16.7,16.7,16.5,16.7,16.3z M18.1,11.6c0,0,0-0.1,0-0.3l0.3-1c0-0.2,0.1-0.4,0.3-0.5c0.2-0.1,0.3-0.1,0.5-0.1c0,0,0.1,0,0.2,0
	c0.2,0,0.4,0.2,0.5,0.4c0.1,0.2,0.1,0.4,0.1,0.6l-0.2,1c-0.1,0.4-0.4,0.6-0.8,0.6c-0.1,0-0.2,0-0.3-0.1c-0.2-0.1-0.4-0.2-0.5-0.3
	C18.2,11.9,18.1,11.7,18.1,11.6z"/>
</svg>
