<?xml version="1.0" encoding="utf-8"?>
<!-- Generator: Adobe Illustrator 21.1.0, SVG Export Plug-In . SVG Version: 6.00 Build 0)  -->
<svg version="1.1" id="Layer_1" xmlns="http://www.w3.org/2000/svg" xmlns:xlink="http://www.w3.org/1999/xlink" x="0px" y="0px"
	 viewBox="0 0 30 20.1" style="enable-background:new 0 0 30 20.1;" xml:space="preserve">
<path d="M4.6,9.6c0-1.2,0.3-2.2,1.1-3.1S7.3,5,8.4,4.7c0.3-1.4,1-2.5,2.1-3.4s2.3-1.3,3.8-1.3c1.4,0,2.6,0.4,3.7,1.3
	s1.8,1.9,2.1,3.3h0.3c0.9,0,1.7,0.2,2.5,0.7s1.4,1,1.8,1.8c0.4,0.8,0.7,1.6,0.7,2.5c0,1.3-0.5,2.5-1.4,3.4c-0.9,1-2,1.5-3.4,1.5
	c-0.1,0-0.2-0.1-0.2-0.2V13c0-0.1,0.1-0.2,0.2-0.2c0.9,0,1.6-0.4,2.2-1s0.9-1.4,0.9-2.2c0-0.9-0.3-1.6-1-2.3s-1.4-1-2.3-1h-1.6
	c-0.1,0-0.2-0.1-0.2-0.2l-0.1-0.6c-0.1-1.1-0.6-2-1.4-2.7c-0.8-0.7-1.8-1.1-2.9-1.1c-1.1,0-2.1,0.4-2.9,1.1
	c-0.8,0.7-1.3,1.6-1.4,2.8L10,6.1c0,0.1-0.1,0.2-0.2,0.2L9.2,6.3c-0.8,0.1-1.5,0.4-2.1,1S6.3,8.7,6.3,9.6c0,0.9,0.3,1.6,0.9,2.2
	s1.3,1,2.2,1c0.1,0,0.2,0.1,0.2,0.2v1.3c0,0.1-0.1,0.2-0.2,0.2C8,14.5,6.9,14,6,13C5.1,12,4.6,10.9,4.6,9.6z M11,13.6
	c0-0.2,0.1-0.4,0.2-0.6s0.4-0.2,0.6-0.2c0.2,0,0.4,0.1,0.6,0.2s0.2,0.4,0.2,0.6c0,0.2-0.1,0.4-0.2,0.6c-0.2,0.2-0.4,0.2-0.6,0.2
	c-0.2,0-0.4-0.1-0.6-0.2C11.1,14.1,11,13.9,11,13.6z M11,17.3c0-0.2,0.1-0.4,0.2-0.6c0.2-0.1,0.4-0.2,0.6-0.2s0.4,0.1,0.6,0.2
	c0.2,0.2,0.2,0.4,0.2,0.6s-0.1,0.4-0.2,0.6s-0.4,0.2-0.6,0.2c-0.2,0-0.4-0.1-0.6-0.2C11.1,17.7,11,17.5,11,17.3z M14.2,15.6
	c0-0.2,0.1-0.4,0.2-0.6c0.2-0.2,0.4-0.2,0.6-0.2c0.2,0,0.4,0.1,0.6,0.3s0.3,0.4,0.3,0.6s-0.1,0.4-0.2,0.6c-0.2,0.2-0.4,0.2-0.6,0.2
	c-0.2,0-0.4-0.1-0.6-0.2C14.3,16,14.2,15.8,14.2,15.6z M14.2,11.9c0-0.2,0.1-0.4,0.2-0.6c0.2-0.2,0.4-0.2,0.6-0.2
	c0.2,0,0.4,0.1,0.6,0.2s0.2,0.4,0.2,0.6c0,0.2-0.1,0.4-0.2,0.6s-0.4,0.2-0.6,0.2c-0.2,0-0.4-0.1-0.6-0.2
	C14.3,12.4,14.2,12.2,14.2,11.9z M14.2,19.2c0-0.2,0.1-0.4,0.2-0.6c0.2-0.2,0.4-0.2,0.6-0.2c0.2,0,0.4,0.1,0.6,0.2s0.2,0.4,0.2,0.6
	s-0.1,0.4-0.2,0.6s-0.4,0.2-0.6,0.2c-0.2,0-0.4-0.1-0.6-0.2C14.3,19.6,14.2,19.5,14.2,19.2z M17.4,13.6c0-0.2,0.1-0.4,0.2-0.6
	s0.4-0.2,0.6-0.2s0.4,0.1,0.6,0.2s0.2,0.4,0.2,0.6c0,0.2-0.1,0.4-0.2,0.6c-0.2,0.2-0.4,0.2-0.6,0.2s-0.4-0.1-0.6-0.2
	C17.5,14.1,17.4,13.9,17.4,13.6z M17.4,17.3c0-0.2,0.1-0.4,0.2-0.6c0.2-0.1,0.4-0.2,0.6-0.2s0.4,0.1,0.6,0.2s0.2,0.4,0.2,0.6
	s-0.1,0.4-0.2,0.6c-0.2,0.2-0.4,0.2-0.6,0.2s-0.4-0.1-0.6-0.2C17.5,17.7,17.4,17.5,17.4,17.3z"/>
</svg>
