<?xml version="1.0" encoding="utf-8"?>
<!-- Generator: Adobe Illustrator 21.1.0, SVG Export Plug-In . SVG Version: 6.00 Build 0)  -->
<svg version="1.1" id="Layer_1" xmlns="http://www.w3.org/2000/svg" xmlns:xlink="http://www.w3.org/1999/xlink" x="0px" y="0px"
	 viewBox="0 0 30 16.6" style="enable-background:new 0 0 30 16.6;" xml:space="preserve">
<path d="M8.8,9.6C7.6,7.2,7.8,4.9,9.3,2.8c1-1.5,2.6-2.4,4.7-2.7C14.2,0,14.3,0,14.5,0h0.6c2.9,0.1,5.1,1.4,6.4,3.9
	c0.6,1.2,0.8,2.5,0.5,3.9c-0.3,1.1-0.7,2.2-1.3,3.2c-1.3,2-2.6,3.6-4,4.9c-0.1,0.1-0.2,0.2-0.3,0.3c-0.5,0.3-0.9,0.5-1.3,0.5
	c-0.4,0-0.8-0.1-1.3-0.5c-0.3-0.2-0.5-0.4-0.7-0.6C11.2,13.6,9.7,11.6,8.8,9.6z M8.9,7.4c0,0.1,0.1,0.2,0.1,0.4S9,8.1,9,8.2
	c0.3,1.3,0.9,2.2,1.7,2.9c0.9,0.7,2,1.1,3.3,1.2c0.3,0,0.5,0,0.5,0s0.1-0.2,0.1-0.5c0-0.1,0-0.2-0.1-0.4s0-0.3-0.1-0.4
	c-0.2-1.3-0.9-2.3-1.9-2.9C12.4,8,12.2,7.9,12,7.8s-0.4-0.2-0.6-0.3c-0.2-0.1-0.4-0.2-0.7-0.3C10.4,7.1,10.2,7,10.1,7
	C9.9,6.9,9.7,6.9,9.3,6.9C8.9,6.9,8.8,7.1,8.9,7.4z M15.7,11.8c0,0.3,0,0.5,0.1,0.6c0.1,0.1,0.2,0.1,0.6,0c0.4,0,0.8-0.1,1.2-0.2
	c1.1-0.3,1.9-0.8,2.6-1.7c0.3-0.4,0.6-0.9,0.8-1.3s0.3-1.1,0.5-1.7c0-0.2,0-0.4,0-0.5c-0.1-0.1-0.2-0.1-0.4-0.1
	c-0.6,0.1-1.1,0.2-1.6,0.4c-1.1,0.4-2,1-2.6,1.7C16,9.7,15.7,10.7,15.7,11.8z"/>
</svg>
