<?xml version="1.0" encoding="utf-8"?>
<!-- Generator: Adobe Illustrator 21.1.0, SVG Export Plug-In . SVG Version: 6.00 Build 0)  -->
<svg version="1.1" id="Layer_1" xmlns="http://www.w3.org/2000/svg" xmlns:xlink="http://www.w3.org/1999/xlink" x="0px" y="0px"
	 viewBox="0 0 30 30" style="enable-background:new 0 0 30 30;" xml:space="preserve">
<path d="M0.8,7.2c0-1.4,0.5-2.5,1.4-3.5c1-1,2.1-1.4,3.5-1.4c1.3,0,2.5,0.5,3.4,1.4c0.9,1,1.4,2.1,1.4,3.5s-0.5,2.5-1.4,3.5
	c-0.9,1-2.1,1.4-3.4,1.4c-1.4,0-2.5-0.5-3.5-1.4C1.3,9.7,0.8,8.5,0.8,7.2z M3.2,7.2c0,0.7,0.2,1.3,0.7,1.8C4.4,9.5,5,9.7,5.7,9.7
	S7,9.5,7.6,9c0.5-0.5,0.8-1.1,0.8-1.8S8.1,5.9,7.6,5.3S6.4,4.6,5.7,4.6S4.4,4.8,3.9,5.3C3.4,5.8,3.2,6.5,3.2,7.2z M13.7,19.1
	c0,2.1,0.6,3.9,1.7,5.6c0.6,0.8,1.4,1.5,2.5,2c1.1,0.5,2.3,0.8,3.6,0.8c4,0,6.4-1.5,7.4-4.5c0.1-0.4,0.1-0.8-0.2-1.1
	s-0.5-0.5-0.9-0.6c-0.4-0.1-0.8-0.1-1.1,0.2c-0.3,0.2-0.5,0.5-0.6,0.9c0,0,0,0.1,0,0.1l-0.1,0.2c-0.3,0.5-0.7,0.9-1.2,1.2
	c-0.8,0.5-1.9,0.8-3.3,0.8c-0.8,0-1.6-0.1-2.2-0.4c-1.1-0.5-1.8-1.3-2.3-2.4c-0.3-0.7-0.5-1.6-0.5-2.6v-8.7c0-0.4,0-0.8,0.1-1.2
	c0.1-1,0.5-2,1.2-2.8C18.7,5.5,20,5,21.7,5c1.4,0,2.5,0.2,3.3,0.7c0.5,0.3,0.9,0.7,1.2,1.2c0,0.1,0,0.1,0.1,0.2s0,0.1,0,0.2
	C26.4,7.7,26.7,8,27,8.1c0.3,0.2,0.7,0.2,1.1,0.1c0.4-0.1,0.7-0.3,0.9-0.6s0.3-0.7,0.2-1.1v0l-0.2-0.6c-0.1-0.3-0.4-0.7-0.8-1.2
	c-0.4-0.5-0.8-0.9-1.2-1.2c-0.6-0.4-1.3-0.7-2.2-1c-0.9-0.3-1.9-0.4-3-0.4c-1.4,0-2.6,0.2-3.7,0.7c-1.1,0.5-1.9,1.1-2.5,2
	c-1.2,1.6-1.8,3.5-1.8,5.6L13.7,19.1L13.7,19.1z"/>
</svg>
